M48
; DRILL file {KiCad 7.0.1} date Thu May 11 17:36:26 2023
; FORMAT={-:-/ absolute / metric / decimal}
; #@! TF.CreationDate,2023-05-11T17:36:26+05:30
; #@! TF.GenerationSoftware,Kicad,Pcbnew,7.0.1
; #@! TF.FileFunction,MixedPlating,1,2
FMAT,2
METRIC
; #@! TA.AperFunction,Plated,PTH,ViaDrill
T1C0.400
; #@! TA.AperFunction,Plated,PTH,ComponentDrill
T2C1.000
; #@! TA.AperFunction,Plated,PTH,ComponentDrill
T3C1.100
; #@! TA.AperFunction,Plated,PTH,ComponentDrill
T4C1.200
; #@! TA.AperFunction,Plated,PTH,ComponentDrill
T5C1.400
; #@! TA.AperFunction,NonPlated,NPTH,ComponentDrill
T6C0.800
; #@! TA.AperFunction,NonPlated,NPTH,ComponentDrill
T7C0.900
; #@! TA.AperFunction,NonPlated,NPTH,ComponentDrill
T8C2.200
%
G90
G05
T1
X99.314Y-76.352
X104.292Y-91.846
X106.45Y-87.88
X111.506Y-94.691
X111.6Y-90.991
X111.608Y-101.143
X111.963Y-97.536
X113.22Y-101.81
X114.43Y-95.001
X114.57Y-85.42
X114.57Y-87.23
X116.027Y-87.325
X116.31Y-97.15
X117.15Y-83.35
X119.329Y-85.547
X119.7Y-93.21
X121.45Y-103.48
X123.139Y-100.736
X124.455Y-85.305
X124.64Y-101.81
X125.515Y-86.365
X126.139Y-101.81
X126.187Y-100.127
X127.88Y-89.61
X127.91Y-100.92
X129.997Y-90.881
X133.274Y-97.612
X133.38Y-90.57
X136.55Y-90.322
X136.906Y-109.423
X142.951Y-110.795
X143.154Y-100.482
T2
X91.81Y-102.86
X91.81Y-105.4
X91.81Y-107.94
X91.81Y-110.48
X91.817Y-79.488
X91.817Y-82.028
X91.817Y-84.568
X91.817Y-87.108
X91.82Y-91.19
X91.82Y-93.73
X91.82Y-96.27
X91.82Y-98.81
X101.75Y-116.79
X104.29Y-116.79
X105.11Y-106.27
X106.83Y-116.79
X107.65Y-106.27
X109.37Y-116.79
X110.19Y-106.27
X112.73Y-106.27
X113.17Y-72.93
X113.407Y-116.826
X115.27Y-106.27
X115.71Y-72.93
X115.947Y-116.826
X118.25Y-72.93
X118.487Y-116.826
X120.79Y-72.93
X121.027Y-116.826
X123.059Y-106.158
X125.05Y-116.82
X125.091Y-72.884
X125.599Y-106.158
X127.59Y-116.82
X127.631Y-72.884
X128.139Y-106.158
X128.41Y-79.87
X130.13Y-116.82
X130.171Y-72.884
X130.679Y-106.158
X130.95Y-79.87
X132.67Y-116.82
X132.712Y-72.884
X133.49Y-79.87
X135.21Y-116.82
X136.03Y-79.87
X138.57Y-79.87
T3
X99.56Y-82.1
X99.56Y-88.6
X104.06Y-82.1
X104.06Y-88.6
T4
X142.642Y-87.74
X142.642Y-95.49
T5
X138.843Y-87.89
X138.843Y-95.34
T6
X139.892Y-89.115
X139.892Y-94.115
T7
X100.037Y-72.715
X103.037Y-72.715
T8
X92.358Y-73.56
X92.36Y-116.17
X141.43Y-116.23
X141.49Y-73.52
T0
M30
